<svg xmlns="http://www.w3.org/2000/svg" xmlns:xlink="http://www.w3.org/1999/xlink" width="500" zoomAndPan="magnify" viewBox="0 0 375 374.999991" height="500" preserveAspectRatio="xMidYMid meet" version="1.0"><defs><g/><clipPath id="f42e85c98a"><path d="M 66 66 L 309 66 L 309 309 L 66 309 Z M 66 66 " clip-rule="nonzero"/></clipPath><clipPath id="9bdd19f11e"><path d="M 187.5 66 C 120.398438 66 66 120.398438 66 187.5 C 66 254.601562 120.398438 309 187.5 309 C 254.601562 309 309 254.601562 309 187.5 C 309 120.398438 254.601562 66 187.5 66 " clip-rule="nonzero"/></clipPath></defs><g clip-path="url(#f42e85c98a)"><g clip-path="url(#9bdd19f11e)"><path fill="#18120e" d="M 66 66 L 309 66 L 309 309 L 66 309 Z M 66 66 " fill-opacity="1" fill-rule="nonzero"/></g></g><g fill="#ffffff" fill-opacity="1"><g transform="translate(105.738586, 211.499986)"><g><path d="M 24.09375 -34.515625 C 22.707031 -34.515625 21.46875 -34.222656 20.375 -33.640625 C 19.28125 -33.054688 18.34375 -32.207031 17.5625 -31.09375 C 16.789062 -29.976562 16.203125 -28.617188 15.796875 -27.015625 C 15.390625 -25.421875 15.1875 -23.613281 15.1875 -21.59375 C 15.1875 -18.851562 15.535156 -16.550781 16.234375 -14.6875 C 16.929688 -12.820312 17.988281 -11.410156 19.40625 -10.453125 C 20.820312 -9.503906 22.601562 -9.03125 24.75 -9.03125 C 26.695312 -9.03125 28.566406 -9.296875 30.359375 -9.828125 C 32.160156 -10.367188 33.972656 -11.015625 35.796875 -11.765625 L 35.796875 -1.8125 C 33.867188 -0.957031 31.894531 -0.34375 29.875 0.03125 C 27.863281 0.40625 25.726562 0.59375 23.46875 0.59375 C 18.738281 0.59375 14.867188 -0.34375 11.859375 -2.21875 C 8.859375 -4.09375 6.644531 -6.695312 5.21875 -10.03125 C 3.800781 -13.375 3.09375 -17.25 3.09375 -21.65625 C 3.09375 -24.945312 3.554688 -27.960938 4.484375 -30.703125 C 5.410156 -33.441406 6.765625 -35.816406 8.546875 -37.828125 C 10.335938 -39.847656 12.546875 -41.410156 15.171875 -42.515625 C 17.804688 -43.617188 20.820312 -44.171875 24.21875 -44.171875 C 26.320312 -44.171875 28.539062 -43.925781 30.875 -43.4375 C 33.207031 -42.957031 35.484375 -42.179688 37.703125 -41.109375 L 34.109375 -31.84375 C 32.515625 -32.59375 30.90625 -33.222656 29.28125 -33.734375 C 27.65625 -34.253906 25.925781 -34.515625 24.09375 -34.515625 Z M 24.09375 -34.515625 "/></g></g></g><g fill="#ffffff" fill-opacity="1"><g transform="translate(145.930517, 211.499986)"><g/></g></g><g fill="#1fc2d7" fill-opacity="1"><g transform="translate(162.375301, 211.499986)"><g><path d="M 20.140625 -44.109375 C 22.878906 -44.109375 25.238281 -43.695312 27.21875 -42.875 C 29.207031 -42.050781 30.738281 -40.867188 31.8125 -39.328125 C 32.882812 -37.785156 33.421875 -35.925781 33.421875 -33.75 C 33.421875 -31.226562 32.691406 -29.046875 31.234375 -27.203125 C 29.773438 -25.367188 27.882812 -23.75 25.5625 -22.34375 L 31.484375 -16.703125 C 32.179688 -17.773438 32.796875 -18.972656 33.328125 -20.296875 C 33.867188 -21.617188 34.285156 -23.003906 34.578125 -24.453125 L 46.671875 -24.453125 C 46.035156 -21.515625 45.054688 -18.679688 43.734375 -15.953125 C 42.421875 -13.222656 41.019531 -10.953125 39.53125 -9.140625 L 49.0625 0 L 33.984375 0 L 31.03125 -3.03125 C 29.9375 -2.363281 28.847656 -1.75 27.765625 -1.1875 C 26.691406 -0.632812 25.390625 -0.203125 23.859375 0.109375 C 22.328125 0.429688 20.351562 0.59375 17.9375 0.59375 C 14.539062 0.59375 11.664062 0.0234375 9.3125 -1.109375 C 6.957031 -2.253906 5.171875 -3.785156 3.953125 -5.703125 C 2.742188 -7.617188 2.140625 -9.75 2.140625 -12.09375 C 2.140625 -13.820312 2.453125 -15.425781 3.078125 -16.90625 C 3.703125 -18.382812 4.613281 -19.71875 5.8125 -20.90625 C 7.019531 -22.101562 8.5 -23.144531 10.25 -24.03125 C 9.4375 -24.96875 8.734375 -25.929688 8.140625 -26.921875 C 7.554688 -27.921875 7.109375 -28.976562 6.796875 -30.09375 C 6.492188 -31.21875 6.34375 -32.4375 6.34375 -33.75 C 6.34375 -35.75 6.863281 -37.53125 7.90625 -39.09375 C 8.945312 -40.65625 10.492188 -41.878906 12.546875 -42.765625 C 14.609375 -43.660156 17.140625 -44.109375 20.140625 -44.109375 Z M 16.59375 -17.640625 C 16.03125 -17.210938 15.566406 -16.75 15.203125 -16.25 C 14.835938 -15.757812 14.566406 -15.234375 14.390625 -14.671875 C 14.222656 -14.117188 14.140625 -13.535156 14.140625 -12.921875 C 14.140625 -11.671875 14.59375 -10.648438 15.5 -9.859375 C 16.40625 -9.066406 17.582031 -8.671875 19.03125 -8.671875 C 20.164062 -8.671875 21.160156 -8.816406 22.015625 -9.109375 C 22.867188 -9.410156 23.523438 -9.75 23.984375 -10.125 Z M 19.953125 -36.484375 C 19.117188 -36.484375 18.390625 -36.238281 17.765625 -35.75 C 17.140625 -35.269531 16.828125 -34.472656 16.828125 -33.359375 C 16.828125 -32.484375 17.085938 -31.65625 17.609375 -30.875 C 18.140625 -30.09375 18.753906 -29.382812 19.453125 -28.75 C 20.578125 -29.382812 21.4375 -30.144531 22.03125 -31.03125 C 22.632812 -31.925781 22.9375 -32.832031 22.9375 -33.75 C 22.9375 -34.71875 22.648438 -35.414062 22.078125 -35.84375 C 21.515625 -36.269531 20.804688 -36.484375 19.953125 -36.484375 Z M 19.953125 -36.484375 "/></g></g></g><g fill="#ffffff" fill-opacity="1"><g transform="translate(211.699516, 211.499986)"><g/></g></g><g fill="#ffffff" fill-opacity="1"><g transform="translate(228.154193, 211.499986)"><g><path d="M 4.703125 -43.546875 L 19.890625 -43.546875 C 26.191406 -43.546875 30.679688 -42.613281 33.359375 -40.75 C 36.035156 -38.882812 37.375 -36.203125 37.375 -32.703125 C 37.375 -30.796875 37.03125 -29.175781 36.34375 -27.84375 C 35.664062 -26.519531 34.804688 -25.46875 33.765625 -24.6875 C 32.722656 -23.914062 31.65625 -23.390625 30.5625 -23.109375 L 30.5625 -22.8125 C 31.75 -22.519531 32.929688 -22.03125 34.109375 -21.34375 C 35.296875 -20.65625 36.28125 -19.628906 37.0625 -18.265625 C 37.851562 -16.910156 38.25 -15.070312 38.25 -12.75 C 38.25 -10.101562 37.578125 -7.828125 36.234375 -5.921875 C 34.890625 -4.015625 32.976562 -2.550781 30.5 -1.53125 C 28.019531 -0.507812 25.070312 0 21.65625 0 L 4.703125 0 Z M 16.46875 -26.84375 L 20.015625 -26.84375 C 21.960938 -26.84375 23.332031 -27.242188 24.125 -28.046875 C 24.914062 -28.847656 25.3125 -29.828125 25.3125 -30.984375 C 25.3125 -32.171875 24.859375 -33.078125 23.953125 -33.703125 C 23.054688 -34.328125 21.664062 -34.640625 19.78125 -34.640625 L 16.46875 -34.640625 Z M 16.46875 -18.234375 L 16.46875 -9.078125 L 20.609375 -9.078125 C 22.648438 -9.078125 24.078125 -9.519531 24.890625 -10.40625 C 25.710938 -11.289062 26.125 -12.398438 26.125 -13.734375 C 26.125 -14.503906 25.945312 -15.234375 25.59375 -15.921875 C 25.25 -16.609375 24.660156 -17.164062 23.828125 -17.59375 C 22.992188 -18.019531 21.84375 -18.234375 20.375 -18.234375 Z M 16.46875 -18.234375 "/></g></g></g></svg>